<?xml version="1.0" encoding="utf-8"?>
<!-- Generator: Adobe Illustrator 25.4.1, SVG Export Plug-In . SVG Version: 6.00 Build 0)  -->
<svg version="1.1" id="Calque_1" xmlns="http://www.w3.org/2000/svg" xmlns:xlink="http://www.w3.org/1999/xlink" x="0px" y="0px"
	 viewBox="0 0 226.8 99.2" style="enable-background:new 0 0 226.8 99.2;" xml:space="preserve">
<g>
	<path d="M35,21.8h4.3l18.9,42.5H52l-5.6-12.5h-18L23,64.3h-6.2L35,21.8z M43.9,46.4L37,31.1l-6.3,15.3H43.9z"/>
	<path d="M95.5,22h5.7v42.3H95V31.4l-13,16.3h-1.1L67.8,31.4v32.9h-6.1V22h5.7l14,17.4L95.5,22z"/>
	<path d="M122.7,64.3h-14.3V22h11.1c3.5,0,6.2,0.5,8.2,1.4c2,0.9,3.4,2.2,4.5,3.9c1,1.6,1.5,3.5,1.5,5.7c0,4.2-2.1,7.1-6.4,8.9
		c3.1,0.6,5.5,1.9,7.4,3.8c1.8,2,2.7,4.3,2.7,7c0,2.2-0.6,4.1-1.7,5.8c-1.1,1.7-2.7,3.1-4.9,4.1C128.6,63.8,125.9,64.3,122.7,64.3z
		 M119.6,27.4h-5.2v12.7h4c3.2,0,5.5-0.6,6.9-1.8c1.4-1.2,2-2.8,2-4.8C127.4,29.5,124.8,27.4,119.6,27.4z M120.1,45.5h-5.7v13.4h6
		c3.3,0,5.6-0.3,6.7-0.8s2.1-1.3,2.8-2.4s1.1-2.3,1.1-3.5c0-1.3-0.4-2.5-1.1-3.5c-0.8-1.1-1.8-1.9-3.2-2.4
		C125.3,45.8,123.1,45.5,120.1,45.5z"/>
	<path d="M142.9,22h24v5.4H149v12.9h17.3v5.4H149v13.1h18.5v5.4h-24.5V22z"/>
	<path d="M175.3,64.3V22h10.6c4.3,0,7.7,1.1,10.2,3.2s3.8,5,3.8,8.6c0,2.5-0.6,4.6-1.8,6.4c-1.2,1.8-2.7,3.1-4.9,4.4l10.7,19.7h-7.2
		l-9.4-18.4c0,0-2.2,0-4.2,0h-1.6v18.4H175.3z M183.2,27.2h-1.8v13.3h2.3c3.1,0,5.2-0.3,6.3-0.8c1.1-0.5,2-1.3,2.7-2.4
		c0.6-1.1,1-2.3,1-3.6c0-1.3-0.4-2.5-1.1-3.6c-0.7-1.1-1.7-1.8-3-2.3C188.3,27.4,186.2,27.2,183.2,27.2z"/>
</g>
<g>
	<path d="M102.4,72.7v6.4h-1.8v-4.9c0-1-0.1-1.7-0.4-2c-0.3-0.4-0.7-0.6-1.4-0.6c-0.4,0-0.7,0.1-1,0.2c-0.3,0.2-0.6,0.5-1,0.9v6.4
		h-1.7v-8.8h1.7v1.2c0.9-0.9,1.8-1.3,2.6-1.3c1.1,0,2,0.5,2.6,1.6c0.9-1.1,1.9-1.6,2.9-1.6c0.9,0,1.6,0.3,2.1,0.9
		c0.6,0.6,0.8,1.6,0.8,2.9v5.2h-1.7v-5.2c0-0.7-0.2-1.3-0.5-1.7c-0.3-0.4-0.7-0.6-1.3-0.6C103.7,71.6,103.1,72,102.4,72.7z"/>
	<path d="M114.8,70.3c1.3,0,2.5,0.4,3.3,1.3c0.9,0.9,1.3,2,1.3,3.3c0,1.3-0.5,2.3-1.4,3.2c-0.9,0.8-2,1.3-3.4,1.3
		c-1.3,0-2.4-0.4-3.3-1.3c-0.9-0.9-1.3-1.9-1.3-3.2c0-1.3,0.4-2.4,1.3-3.2C112.3,70.7,113.5,70.3,114.8,70.3z M114.7,71.9
		c-0.8,0-1.5,0.3-2.1,0.8c-0.5,0.5-0.8,1.2-0.8,2.1c0,0.8,0.3,1.5,0.8,2.1c0.5,0.5,1.3,0.8,2.1,0.8c0.9,0,1.6-0.3,2.1-0.8
		c0.5-0.5,0.8-1.2,0.8-2.1c0-0.8-0.3-1.5-0.9-2.1C116.3,72.1,115.6,71.9,114.7,71.9z"/>
	<path d="M127.1,70.3h1.9l-3.9,9h-0.6l-4-9h1.9l2.4,5.4L127.1,70.3z"/>
	<path d="M131.4,66.6c0.3,0,0.5,0.1,0.7,0.3c0.2,0.2,0.3,0.4,0.3,0.7c0,0.3-0.1,0.5-0.3,0.7c-0.2,0.2-0.4,0.3-0.7,0.3
		c-0.3,0-0.5-0.1-0.7-0.3c-0.2-0.2-0.3-0.4-0.3-0.7c0-0.3,0.1-0.5,0.3-0.7C130.9,66.7,131.2,66.6,131.4,66.6z M130.6,70.3h1.7v8.8
		h-1.7V70.3z"/>
	<path d="M136.8,70.3v1.1c0.8-0.9,1.7-1.3,2.7-1.3c0.5,0,1.1,0.1,1.5,0.4c0.5,0.3,0.8,0.7,1.1,1.2c0.2,0.5,0.4,1.3,0.4,2.4v5h-1.7
		v-5c0-0.9-0.1-1.5-0.4-1.9c-0.3-0.4-0.7-0.6-1.4-0.6c-0.8,0-1.5,0.4-2.1,1.2v6.3H135v-8.8H136.8z"/>
	<path d="M144.7,73.3c0-0.9,0.3-1.7,1-2.2c0.7-0.5,1.6-0.8,2.8-0.8h3.6v1.4h-1.8c0.3,0.4,0.6,0.7,0.7,1s0.2,0.6,0.2,1
		c0,0.5-0.1,0.9-0.4,1.4c-0.3,0.4-0.6,0.8-1,1c-0.4,0.2-1.1,0.4-2,0.6c-0.7,0.1-1,0.3-1,0.7c0,0.2,0.1,0.4,0.4,0.5
		c0.2,0.1,0.7,0.3,1.3,0.4c1.1,0.2,1.8,0.4,2.1,0.6c0.3,0.1,0.6,0.3,0.8,0.6c0.4,0.4,0.6,1,0.6,1.6c0,0.8-0.4,1.5-1.1,2
		c-0.7,0.5-1.7,0.7-3,0.7c-1.3,0-2.3-0.3-3-0.8c-0.8-0.5-1.1-1.2-1.1-2c0-1.2,0.7-2,2.2-2.3c-0.6-0.4-0.9-0.8-0.9-1.1
		c0-0.3,0.1-0.5,0.4-0.8c0.3-0.2,0.6-0.4,1-0.5C145.3,75.6,144.7,74.6,144.7,73.3z M147.6,79.5c-0.6,0-1.1,0.1-1.4,0.4
		c-0.4,0.2-0.6,0.6-0.6,1c0,0.9,0.8,1.4,2.5,1.4c0.8,0,1.4-0.1,1.8-0.3c0.4-0.2,0.6-0.5,0.6-1c0-0.4-0.3-0.7-0.8-1
		C149.1,79.7,148.4,79.5,147.6,79.5z M148,71.8c-0.5,0-0.9,0.2-1.2,0.5c-0.3,0.3-0.5,0.7-0.5,1.1c0,0.5,0.2,0.8,0.5,1.1
		c0.3,0.3,0.7,0.4,1.2,0.4c0.5,0,0.9-0.2,1.2-0.5c0.3-0.3,0.5-0.7,0.5-1.1c0-0.5-0.2-0.8-0.5-1.1C148.9,72,148.5,71.8,148,71.8z"/>
	<path d="M166.7,72.7v6.4H165v-4.9c0-1-0.1-1.7-0.4-2c-0.3-0.4-0.7-0.6-1.4-0.6c-0.4,0-0.7,0.1-1,0.2c-0.3,0.2-0.7,0.5-1,0.9v6.4
		h-1.7v-8.8h1.7v1.2c0.9-0.9,1.8-1.3,2.6-1.3c1.1,0,2,0.5,2.6,1.6c0.9-1.1,1.9-1.6,2.9-1.6c0.9,0,1.6,0.3,2.1,0.9
		c0.6,0.6,0.8,1.6,0.8,2.9v5.2h-1.7v-5.2c0-0.7-0.2-1.3-0.5-1.7c-0.3-0.4-0.7-0.6-1.3-0.6C168,71.6,167.3,72,166.7,72.7z"/>
	<path d="M180.5,79.1V78c-0.4,0.4-0.8,0.7-1.3,0.9c-0.5,0.2-0.9,0.3-1.4,0.3c-0.6,0-1.1-0.1-1.5-0.4c-0.5-0.3-0.8-0.7-1.1-1.1
		c-0.2-0.5-0.4-1.3-0.4-2.4v-5h1.7v5c0,0.9,0.1,1.6,0.4,1.9c0.3,0.4,0.7,0.6,1.4,0.6c0.8,0,1.5-0.4,2.1-1.2v-6.3h1.7v8.8H180.5z"/>
	<path d="M184.5,78.5v-1.9c0.5,0.3,1,0.6,1.5,0.8c0.5,0.2,0.9,0.3,1.3,0.3c0.4,0,0.7-0.1,0.9-0.3c0.3-0.2,0.4-0.4,0.4-0.6
		c0-0.3-0.1-0.5-0.3-0.6c-0.2-0.2-0.5-0.4-1.1-0.7c-1.1-0.6-1.9-1.2-2.2-1.6c-0.3-0.4-0.5-0.9-0.5-1.5c0-0.7,0.3-1.2,0.8-1.7
		c0.5-0.4,1.2-0.6,2-0.6c0.9,0,1.7,0.2,2.7,0.7v1.7c-1-0.6-1.9-0.9-2.5-0.9c-0.3,0-0.6,0.1-0.8,0.2c-0.2,0.1-0.3,0.3-0.3,0.6
		c0,0.2,0.1,0.4,0.3,0.6c0.2,0.2,0.5,0.4,1,0.7l0.6,0.4c1.5,0.8,2.2,1.7,2.2,2.8c0,0.7-0.3,1.3-0.8,1.8c-0.6,0.5-1.3,0.7-2.2,0.7
		c-0.5,0-1-0.1-1.4-0.2C185.6,79,185.1,78.8,184.5,78.5z"/>
	<path d="M193.6,66.6c0.3,0,0.5,0.1,0.7,0.3c0.2,0.2,0.3,0.4,0.3,0.7c0,0.3-0.1,0.5-0.3,0.7c-0.2,0.2-0.4,0.3-0.7,0.3
		c-0.3,0-0.5-0.1-0.7-0.3c-0.2-0.2-0.3-0.4-0.3-0.7c0-0.3,0.1-0.5,0.3-0.7C193.1,66.7,193.4,66.6,193.6,66.6z M192.8,70.3h1.7v8.8
		h-1.7V70.3z"/>
	<path d="M203.9,77.1v1.7c-0.9,0.3-1.7,0.5-2.6,0.5c-1.4,0-2.5-0.4-3.3-1.2c-0.8-0.8-1.2-1.9-1.2-3.3c0-1.4,0.4-2.5,1.2-3.4
		c0.8-0.8,1.8-1.3,3.2-1.3c0.5,0,0.9,0,1.2,0.1c0.4,0.1,0.8,0.2,1.3,0.5v1.9c-0.9-0.6-1.7-0.8-2.5-0.8c-0.8,0-1.4,0.3-1.9,0.8
		c-0.5,0.6-0.8,1.3-0.8,2.1c0,0.9,0.3,1.6,0.8,2.1c0.5,0.5,1.3,0.8,2.2,0.8C202.3,77.6,203,77.4,203.9,77.1z"/>
</g>
<path d="M225.3,1.5v96.2H1.5V1.5H225.3 M226.8,0H0v99.2h226.8V0L226.8,0z"/>
</svg>
