<svg xmlns="http://www.w3.org/2000/svg" viewBox="0 0 226.77 99.21"><defs><style>.cls-1{fill:#94cc77;}</style></defs><g id="Calque_2" data-name="Calque 2"><g id="Calque_1-2" data-name="Calque 1"><path class="cls-1" d="M34.92,21.83h4.25l18.95,42.5H51.93L46.3,51.81h-18L23,64.33H16.77Zm8.89,24.59L37,31.11,30.67,46.42Z"/><path class="cls-1" d="M95.43,22.07h5.66V64.33H95V31.45L82,47.78H80.89L67.75,31.45V64.33h-6V22.07h5.73l14,17.36Z"/><path class="cls-1" d="M122.64,64.33H108.33V22.07h11.08a19.2,19.2,0,0,1,8.16,1.41,10.34,10.34,0,0,1,4.48,3.87,10.49,10.49,0,0,1,1.54,5.7q0,6.24-6.44,8.92a13.13,13.13,0,0,1,7.37,3.82,9.92,9.92,0,0,1,2.73,7,10.3,10.3,0,0,1-1.66,5.78,12.08,12.08,0,0,1-4.89,4.15A18,18,0,0,1,122.64,64.33Zm-3-36.88h-5.21V40.16h4c3.22,0,5.52-.62,6.88-1.85a6.14,6.14,0,0,0,2-4.78Q127.33,27.46,119.59,27.45ZM120,45.54h-5.66V59h6q5,0,6.73-.78a6.39,6.39,0,0,0,2.85-2.4A6.32,6.32,0,0,0,131,52.26a6,6,0,0,0-1.13-3.54,6.77,6.77,0,0,0-3.22-2.39A20.33,20.33,0,0,0,120,45.54Z"/><path class="cls-1" d="M142.9,22.07h24v5.38H149V40.34h17.31v5.42H149V58.89h18.49v5.38H142.9Z"/><path class="cls-1" d="M175.3,64.33V22.07h10.59q6.41,0,10.18,3.18a10.64,10.64,0,0,1,3.76,8.59A11,11,0,0,1,198,40.22a13.21,13.21,0,0,1-4.94,4.38l10.7,19.73h-7.2l-9.4-18.39h-5.8V64.33Zm7.87-37.12h-1.82V40.55h2.3q4.6,0,6.31-.78a6,6,0,0,0,2.66-2.38,6.92,6.92,0,0,0,.95-3.61,6.45,6.45,0,0,0-1.06-3.62,5.61,5.61,0,0,0-3-2.28A21.2,21.2,0,0,0,183.17,27.21Z"/><path class="cls-1" d="M102.4,72.74v6.4h-1.75v-4.9a3.9,3.9,0,0,0-.39-2,1.56,1.56,0,0,0-1.37-.58,2.09,2.09,0,0,0-1,.25,4.41,4.41,0,0,0-1,.88v6.4H95.1V70.33h1.75v1.16a3.76,3.76,0,0,1,2.6-1.33,2.87,2.87,0,0,1,2.6,1.59A3.9,3.9,0,0,1,105,70.14a2.68,2.68,0,0,1,2.11.94,4.23,4.23,0,0,1,.83,2.86v5.2h-1.74V73.92a2.71,2.71,0,0,0-.45-1.68,1.55,1.55,0,0,0-1.3-.59A2.71,2.71,0,0,0,102.4,72.74Z"/><path class="cls-1" d="M114.78,70.31a4.58,4.58,0,0,1,3.34,1.3,4.34,4.34,0,0,1,1.33,3.26A4.16,4.16,0,0,1,118.1,78a4.8,4.8,0,0,1-3.4,1.26A4.63,4.63,0,0,1,111.38,78a4.51,4.51,0,0,1,0-6.42A4.69,4.69,0,0,1,114.78,70.31Zm-.1,1.57a2.76,2.76,0,0,0-2.06.83,2.84,2.84,0,0,0-.8,2.09,2.76,2.76,0,0,0,.82,2.07,2.92,2.92,0,0,0,2.12.8,2.87,2.87,0,0,0,2.1-.81,2.82,2.82,0,0,0,.82-2.08,2.79,2.79,0,0,0-.85-2.07A3,3,0,0,0,114.68,71.88Z"/><path class="cls-1" d="M127,70.33h1.89l-3.89,9h-.59l-4-9h1.91l2.38,5.42Z"/><path class="cls-1" d="M131.39,66.62a1,1,0,0,1,.74.3,1,1,0,0,1,.3.73,1,1,0,0,1-1,1,1,1,0,0,1-.71-.31,1,1,0,0,1,.71-1.75Zm-.86,3.71h1.74v8.81h-1.74Z"/><path class="cls-1" d="M136.79,70.33v1.12a3.5,3.5,0,0,1,2.65-1.29,2.94,2.94,0,0,1,1.53.42,2.83,2.83,0,0,1,1.08,1.17,5.53,5.53,0,0,1,.37,2.35v5h-1.74v-5a3.39,3.39,0,0,0-.42-1.93,1.58,1.58,0,0,0-1.38-.58,2.51,2.51,0,0,0-2.09,1.24v6.29H135V70.33Z"/><path class="cls-1" d="M144.66,73.38a2.69,2.69,0,0,1,1-2.23,4.35,4.35,0,0,1,2.81-.82h3.63v1.36h-1.78a3.85,3.85,0,0,1,.72,1,2.36,2.36,0,0,1,.2,1,2.62,2.62,0,0,1-.39,1.35,2.85,2.85,0,0,1-1,1,6,6,0,0,1-2,.57c-.66.09-1,.32-1,.68a.57.57,0,0,0,.37.5,5.85,5.85,0,0,0,1.34.41,14.32,14.32,0,0,1,2.08.55,2.81,2.81,0,0,1,.84.58,2.16,2.16,0,0,1,.63,1.59,2.3,2.3,0,0,1-1.12,2,6.32,6.32,0,0,1-6,0,2.31,2.31,0,0,1-1.13-2q0-1.8,2.22-2.31c-.59-.38-.89-.75-.89-1.12a1,1,0,0,1,.38-.77,2.33,2.33,0,0,1,1-.51A2.89,2.89,0,0,1,144.66,73.38Zm2.86,6.17a2.52,2.52,0,0,0-1.44.38,1.13,1.13,0,0,0-.56,1c0,.9.82,1.36,2.45,1.36a4,4,0,0,0,1.8-.34,1.07,1.07,0,0,0,.64-1c0-.4-.27-.74-.81-1A4.79,4.79,0,0,0,147.52,79.55Zm.41-7.71a1.66,1.66,0,0,0-1.2.48,1.56,1.56,0,0,0-.5,1.15,1.45,1.45,0,0,0,.49,1.13A1.76,1.76,0,0,0,148,75a1.73,1.73,0,0,0,1.23-.45,1.49,1.49,0,0,0,.5-1.14,1.51,1.51,0,0,0-.5-1.15A1.8,1.8,0,0,0,147.93,71.84Z"/><path class="cls-1" d="M166.66,72.74v6.4h-1.75v-4.9a3.9,3.9,0,0,0-.39-2,1.55,1.55,0,0,0-1.37-.58,2.12,2.12,0,0,0-1,.25,4.41,4.41,0,0,0-1,.88v6.4h-1.75V70.33h1.75v1.16a3.77,3.77,0,0,1,2.6-1.33,2.86,2.86,0,0,1,2.6,1.59,3.91,3.91,0,0,1,2.92-1.61,2.67,2.67,0,0,1,2.11.94,4.18,4.18,0,0,1,.83,2.86v5.2h-1.74V73.92a2.71,2.71,0,0,0-.45-1.68,1.53,1.53,0,0,0-1.29-.59A2.71,2.71,0,0,0,166.66,72.74Z"/><path class="cls-1" d="M180.44,79.14V78a4.15,4.15,0,0,1-1.27.95,3.4,3.4,0,0,1-1.43.34,2.94,2.94,0,0,1-1.53-.42,2.71,2.71,0,0,1-1.07-1.13,5.67,5.67,0,0,1-.36-2.37v-5h1.75v5a3.42,3.42,0,0,0,.4,1.94,1.58,1.58,0,0,0,1.39.55,2.57,2.57,0,0,0,2.12-1.22V70.33h1.74v8.81Z"/><path class="cls-1" d="M184.46,78.51V76.63a7.49,7.49,0,0,0,1.5.84,3.44,3.44,0,0,0,1.3.32,1.6,1.6,0,0,0,.94-.27.76.76,0,0,0,.39-.64.84.84,0,0,0-.25-.63,5.62,5.62,0,0,0-1.1-.74,7.61,7.61,0,0,1-2.2-1.6,2.32,2.32,0,0,1-.53-1.45,2.06,2.06,0,0,1,.79-1.66,3.13,3.13,0,0,1,2-.64,5.53,5.53,0,0,1,2.65.73v1.72a5.25,5.25,0,0,0-2.54-.94,1.39,1.39,0,0,0-.82.22.67.67,0,0,0-.31.57.81.81,0,0,0,.29.58,4.2,4.2,0,0,0,1,.67l.62.36c1.47.83,2.2,1.75,2.2,2.76a2.19,2.19,0,0,1-.84,1.77,3.32,3.32,0,0,1-2.18.7,5.37,5.37,0,0,1-1.4-.17A8.94,8.94,0,0,1,184.46,78.51Z"/><path class="cls-1" d="M193.59,66.62a1,1,0,0,1,.74.3,1,1,0,0,1,.31.73,1,1,0,0,1-1,1,1,1,0,0,1-.71-.31,1,1,0,0,1,0-1.44A1,1,0,0,1,193.59,66.62Zm-.86,3.71h1.74v8.81h-1.74Z"/><path class="cls-1" d="M203.86,77.08v1.73a7.49,7.49,0,0,1-2.57.49,4.24,4.24,0,0,1-4.53-4.52A4.73,4.73,0,0,1,198,71.43a4.13,4.13,0,0,1,3.16-1.27,5.07,5.07,0,0,1,1.22.13,7.11,7.11,0,0,1,1.33.48v1.86a4.62,4.62,0,0,0-2.45-.84,2.5,2.5,0,0,0-1.93.82,3,3,0,0,0-.76,2.12,2.83,2.83,0,0,0,.82,2.14,3,3,0,0,0,2.21.8A5.78,5.78,0,0,0,203.86,77.08Z"/><path class="cls-1" d="M225.27,1.5V97.71H1.5V1.5H225.27m1.5-1.5H0V99.21H226.77V0Z"/></g></g></svg>